# xmcd
#
# Track frame offsets: 
#        150
#        9807
#        22316
#        32983
#        43737
#        53243
#        63439
#        74408
#        87783
#        96774
#        108218
#        118580
#        130384
#        139030
#        150385
#        160207
#        171492
#        180913
#        192088
#        199351
#        209386
#        218113
#        227411
#        237156
#
# Disc length: 3311 seconds
#
# Revision: 1
# Processed by: cddbd v1.5.2PL0 Copyright (c) Steve Scherf et al.
# Submitted via: ExactAudioCopyFreeDBPlugin 1.0
#
DISCID=4c0ced18
DTITLE=Chet Atkins - 8 Classic Albums Vol. 2 [Disc 1]
DYEAR=2013
DGENRE=Country
TTITLE0=In The Good Old Summertime
TTITLE1=Beautiful Brown Eyes
TTITLE2=The Prisoner's Song
TTITLE3=Titanic
TTITLE4=Tennessee Waltz
TTITLE5=Sweet Bunch Of Daisies
TTITLE6=John Henry
TTITLE7=Birmingham Jail
TTITLE8=Music! Music! Music!
TTITLE9=Cold, Cold Heart
TTITLE10=Bill Bailey
TTITLE11=Goodnight Irene
TTITLE12=I Know That You Know
TTITLE13=Rainbow
TTITLE14=Hello Bluebird
TTITLE15=Siesta
TTITLE16=Country Style
TTITLE17=Show Me The Way To Go Home
TTITLE18=I'm Forever Blowing Bubbles
TTITLE19=Backwoods
TTITLE20=Country Gentleman
TTITLE21=Slinkey
TTITLE22=Jessie
TTITLE23=Concerto In C Minor
EXTD=
EXTT0=
EXTT1=
EXTT2=
EXTT3=
EXTT4=
EXTT5=
EXTT6=
EXTT7=
EXTT8=
EXTT9=
EXTT10=
EXTT11=
EXTT12=
EXTT13=
EXTT14=
EXTT15=
EXTT16=
EXTT17=
EXTT18=
EXTT19=
EXTT20=
EXTT21=
EXTT22=
EXTT23=
PLAYORDER=
